<svg xmlns="http://www.w3.org/2000/svg" viewBox="0 0 96.37 125.21"><defs><style>.cls-1{fill:#1e325a;}.cls-2{fill:#fff;}</style></defs><g id="Layer_2" data-name="Layer 2"><g id="Layer_1-2" data-name="Layer 1"><polygon class="cls-1" points="24.32 86.32 26.56 86.32 25.46 78.85 24.32 86.32"/><path class="cls-1" d="M65.85,78.34h-1.1v4.52h.87c.86,0,1.41-.37,1.41-1.52V79.86C67,78.8,66.67,78.34,65.85,78.34Z"/><path class="cls-1" d="M57.45,78.16c-.73,0-1.19.41-1.19,1.47v8c0,1.06.46,1.47,1.19,1.47s1.19-.41,1.19-1.47v-8C58.64,78.57,58.18,78.16,57.45,78.16Z"/><path class="cls-1" d="M91.81,117.94V7.1a7.06,7.06,0,0,0-7-7.1H7A7.06,7.06,0,0,0,0,7.1V117.94a7,7,0,0,0,7,7H84.83A7,7,0,0,0,91.81,117.94Zm-38.7-38.3v1.94c0,2.35-1.14,3.64-3.46,3.64h-1v5.57H46.27V76h3.38C52,76,53.11,77.29,53.11,79.64ZM41.62,77.93c-.73,0-1.15.42-1.15,1.48,0,3,4.48,3.59,4.48,7.83,0,2.35-1.14,3.69-3.43,3.69s-3.42-1.34-3.42-3.69v-.92h2.19v1.06c0,1.06.46,1.43,1.19,1.43s1.18-.37,1.18-1.43c0-3-4.47-3.59-4.47-7.83,0-2.35,1.14-3.69,3.38-3.69S45,77.2,45,79.55V80H42.76v-.6C42.76,78.35,42.35,77.93,41.62,77.93ZM21.36,81.58c0,2.35-1.15,3.64-3.43,3.64H16.84v5.57H14.56V76h3.37c2.28,0,3.43,1.29,3.43,3.64Zm5.88,9.21-.36-2.67H24.05l-.41,2.67h-2.1L23.86,76h3.38l2.33,14.79Zm3.06-3.55v-.92h2.19v1.06c0,1.06.46,1.43,1.19,1.43s1.18-.37,1.18-1.43c0-3-4.52-3.59-4.52-7.83,0-2.35,1.15-3.69,3.38-3.69s3.42,1.34,3.42,3.69V80H35v-.6c0-1.06-.41-1.48-1.14-1.48s-1.14.42-1.14,1.48c0,3,4.47,3.59,4.47,7.83,0,2.35-1.18,3.69-3.42,3.69S30.3,89.59,30.3,87.24Zm28.38,24.15a1.32,1.32,0,0,1-1.28,1.34H34.45a1.33,1.33,0,0,1-1.32-1.34v-3.18h11a1.93,1.93,0,0,0,1.78,1.29,1.91,1.91,0,0,0,1.78-1.29h11Zm0-4.47h-11a1.92,1.92,0,0,0-1.78-1.29,1.94,1.94,0,0,0-1.78,1.29h-11v-3.18a1.33,1.33,0,0,1,1.32-1.33H57.4a1.32,1.32,0,0,1,1.28,1.33ZM61,87.24c0,2.35-1.23,3.69-3.51,3.69S54,89.59,54,87.24V79.55c0-2.35,1.23-3.69,3.47-3.69S61,77.2,61,79.55Zm6.3,3.55A4.16,4.16,0,0,1,67,89V86.64c0-1.38-.45-1.88-1.5-1.88h-.78v6H62.42V76h3.47c2.42,0,3.42,1.1,3.42,3.41v1.15c0,1.52-.5,2.54-1.5,3,1.14.5,1.5,1.61,1.5,3.13V89a4.44,4.44,0,0,0,.28,1.79Zm10-12.67H74.88V90.79H72.55V78.12H70.18V76H77.3Z"/><path class="cls-1" d="M89.39.22H87.57a7.06,7.06,0,0,1,7,7.1V118.16a7,7,0,0,1-7,7h1.82a7,7,0,0,0,7-7V7.32A7.06,7.06,0,0,0,89.39.22Z"/><path class="cls-1" d="M17.93,78.34H16.84v5h1.09c.73,0,1.1-.37,1.1-1.43V79.73C19,78.67,18.66,78.34,17.93,78.34Z"/><path class="cls-1" d="M48.6,78.34v5h1c.77,0,1.14-.37,1.14-1.43V79.73c0-1.06-.37-1.39-1.14-1.39Z"/><path class="cls-2" d="M83.9,36.88a13.54,13.54,0,0,1-26.15,4.95h-23a13.55,13.55,0,1,1,0-9.89h23A13.54,13.54,0,0,1,83.9,36.88Z"/></g></g></svg>